<svg width="295" height="80" viewBox="0 0 295 80" fill="none" xmlns="http://www.w3.org/2000/svg">
<path d="M45.8 34.7H41C40.7 34.7 40.3 34.5 40.3 34.2C40.3 34.1 40.3 34.1 40.3 34V13.2C40.3 11.3 39.7 9.4 38.6 7.9C37.3 6.3 35.3 5.5 33.3 5.6C32.3 5.6 31.4 5.8 30.5 6.3C29.7 6.7 28.9 7.3 28.3 8C27.7 8.7 27.2 9.5 26.9 10.4C26.6 11.3 26.4 12.3 26.4 13.2V34C26.4 34.5 26.2 34.8 25.7 34.8H21C20.5 34.8 20.2 34.6 20.2 34.1V13.2C20.2 11.3 19.7 9.4 18.6 7.9C17.5 6.4 15.8 5.6 13.4 5.6C12.4 5.6 11.3 5.8 10.4 6.2C9.4 6.5 8.6 7.1 8 7.8C7.4 8.5 7 9.4 6.7 10.2C6.4 11.1 6.2 12.1 6.2 13.1V33.9C6.2 34.4 6 34.7 5.5 34.7H0.8C0.3 34.7 0 34.5 0 34V13.2C0 11.4 0.3 9.7 0.9 8C1.5 6.5 2.3 5.1 3.5 3.9C4.6 2.7 6.1 1.7 7.6 1.1C9.4 0.4 11.3 0.1 13.3 0.1C15.2 0.1 17.1 0.5 18.8 1.3C20.3 2.1 21.7 3.1 22.8 4.4C23.1 4.8 23.4 4.8 23.7 4.5C24.8 3.2 26.2 2.2 27.8 1.4C29.6 0.5 31.7 0.1 33.7 0.1C35.6 0.1 37.6 0.4 39.4 1.1C40.9 1.7 42.3 2.6 43.4 3.8C44.5 5 45.3 6.4 45.8 7.9C46.3 9.6 46.6 11.4 46.6 13.1V33.8C46.5 34.5 46.3 34.7 45.8 34.7ZM98.8 22C98.8 26.2 97.6 29.4 95.1 31.7C92.6 34 89.3 35.1 85.1 35.1C80.8 35.1 77.4 34 75 31.7C72.6 29.4 71.4 26.2 71.4 22V13.1C71.4 9.1 72.6 5.9 74.9 3.6C77.2 1.3 80.6 0.1 85 0.1C89.4 0.1 92.8 1.2 95.2 3.5C97.6 5.8 98.8 9 98.8 13.1V22ZM92.6 13.1C92.7 11.1 92 9.1 90.8 7.6C89.6 6.2 87.7 5.5 85.2 5.4C83.2 5.3 81.2 6.1 79.8 7.5C78.4 9 77.7 11 77.8 13V22C77.7 24 78.3 25.9 79.5 27.5C80.6 28.9 82.5 29.7 85.2 29.7C87.9 29.7 89.8 29 90.9 27.6C92 26.1 92.6 24.1 92.6 22.1V13.1ZM128.9 0.7C129.4 0.7 129.7 0.9 129.7 1.4V5.1C129.7 5.3 129.8 5.5 130 5.6C130.2 5.7 130.4 5.6 130.6 5.3C131.6 3.9 132.8 2.8 134.3 1.8C135.9 0.7 137.8 0.2 139.7 0.2C140 0.2 140.4 0.2 140.9 0.2C141.2 0.2 141.5 0.3 141.8 0.4C142.2 0.5 142.5 0.6 142.5 0.8C142.6 1 142.6 1.3 142.5 1.5L141.6 6.1C141.5 6.5 141.4 6.8 141.2 6.8C141 6.9 140.8 6.9 140.6 6.8C139.9 6.6 139.1 6.6 138.4 6.6C135.5 6.6 133.5 7.4 132.3 9.1C131.1 11 130.5 13.2 130.6 15.4V33.9C130.6 34.4 130.4 34.7 129.9 34.7H125C124.5 34.7 124.2 34.5 124.2 34V1.4C124.2 0.9 124.4 0.6 124.9 0.6L128.9 0.7ZM190.7 17.2C190.7 17.7 190.5 18.2 190.2 18.6C189.9 18.9 189.6 19.1 189.2 19.1H171C170.6 19.1 170.3 19.2 170 19.5C169.7 19.8 169.6 20.1 169.6 20.5V22C169.6 23 169.7 24 170 25C170.5 26.9 171.8 28.5 173.6 29.2C174.7 29.6 175.9 29.8 177.1 29.8C178.6 29.8 180 29.4 181.3 28.7C182.6 28 183.7 27 184.5 25.8C184.8 25.3 185.4 25.2 185.9 25.4C186 25.4 186 25.5 186.1 25.5L188.8 27.4C189.4 27.8 189.6 28.2 189.4 28.6C188.3 30.8 186.5 32.5 184.3 33.5C182.1 34.5 179.7 35.1 177.2 35C173 35 169.6 33.8 167.1 31.5C164.5 29.1 163.2 25.7 163.3 22.2V13.4C163.3 11.5 163.6 9.7 164.3 8C164.9 6.4 165.9 4.9 167.1 3.7C168.3 2.5 169.8 1.6 171.4 1C173.1 0.3 175 0 176.9 0C178.8 0 180.7 0.3 182.5 1C184.1 1.6 185.6 2.5 186.9 3.7C188.1 4.9 189 6.4 189.6 8C190.3 9.7 190.6 11.6 190.6 13.4L190.7 17.2ZM177.1 5.5C173.2 5.3 170 8.3 169.8 12.2C169.8 12.4 169.8 12.5 169.8 12.7V13.2C169.8 13.4 169.9 13.7 170 13.8C170.2 14 170.6 14.1 170.9 14.1H183.7C184.2 14.1 184.5 13.8 184.5 13.2V12.5C184.5 10.7 183.9 8.9 182.6 7.5C181.2 6.1 179.1 5.3 177.1 5.5ZM242.1 22C242.1 26.2 240.9 29.4 238.4 31.7C235.9 34 232.6 35.1 228.4 35.1C224.1 35.1 220.7 34 218.3 31.7C215.9 29.4 214.7 26.2 214.7 22V13.1C214.7 9.1 215.9 5.9 218.2 3.6C220.5 1.2 223.9 0.1 228.3 0.1C232.7 0.1 236.1 1.2 238.5 3.5C240.9 5.8 242.1 9 242.1 13.1V22ZM235.8 13.1C235.9 11.1 235.2 9.2 234 7.6C232.8 6.2 230.9 5.4 228.4 5.4C226.4 5.3 224.4 6.1 223 7.5C221.6 9 220.9 11 221 13V22C220.9 24 221.5 25.9 222.7 27.5C223.8 28.9 225.7 29.7 228.4 29.7C231.1 29.7 232.9 29 234.1 27.5C235.3 25.9 236 23.9 235.9 21.9V13.1H235.8ZM293.9 34.7H289.1C288.8 34.7 288.4 34.5 288.4 34.2C288.4 34.1 288.4 34.1 288.4 34V13.2C288.5 11.2 287.8 9.2 286.5 7.7C285 6.2 283 5.4 280.9 5.5C278.9 5.4 276.9 6.2 275.4 7.6C274 9.1 273.3 11.1 273.4 13.1V33.9C273.5 34.3 273.2 34.6 272.8 34.7C272.7 34.7 272.7 34.7 272.6 34.7H268C267.5 34.7 267.2 34.5 267.2 34V1.4C267.2 0.9 267.4 0.6 267.9 0.6H272.4C272.7 0.6 273 0.8 273.1 1.1C273.1 1.2 273.1 1.2 273.1 1.3V2.5C273.1 3 273.3 3.2 273.6 3.2C273.8 3.1 274 3 274.2 2.9C276.4 1.1 279.1 0.1 282 0.2C285.9 0.2 289 1.4 291.2 3.7C293.5 6.3 294.8 9.7 294.6 13.1V33.9C294.6 34.5 294.4 34.7 293.9 34.7Z" fill="#28B0A9"/>
<path d="M41.6 79.1C41.7 79.5 41.4 79.9 41 79.9C40.9 79.9 40.9 79.9 40.8 79.9H37.5C37.1 80 36.7 79.7 36.7 79.3C36.7 79.2 36.7 79.2 36.7 79.1V59.3C36.6 58.9 36.9 58.5 37.3 58.5C37.4 58.5 37.4 58.5 37.5 58.5H49.7C49.9 58.5 50.1 58.6 50.2 58.7C50.4 58.9 50.4 59.1 50.4 59.3V62.1C50.4 62.6 50.2 62.9 49.7 62.9H42.3C42 62.9 41.8 63 41.7 63.1C41.6 63.2 41.6 63.4 41.6 63.5V66.2C41.6 66.4 41.6 66.6 41.7 66.7C41.8 66.8 42 66.9 42.3 66.9H48.2C48.6 66.9 48.9 67.1 49 67.5C49 67.6 49 67.6 49 67.7V70.5C49 71.1 48.8 71.3 48.2 71.3H42.3C42.1 71.3 41.9 71.3 41.7 71.5C41.6 71.7 41.5 71.9 41.5 72.2L41.6 79.1Z" fill="white"/>
<path d="M72.1999 79.9C71.5999 79.9 71.3999 79.7 71.3999 79.2V59.2C71.3999 58.7 71.6999 58.5 72.1999 58.5H75.4999C75.6999 58.5 75.8999 58.5 76.0999 58.7C76.2999 58.8 76.3999 59.1 76.2999 59.3V79.3C76.2999 79.8 75.9999 80 75.4999 80H72.1999V79.9Z" fill="white"/>
<path d="M112.1 62.7C112 62.9 111.8 62.9 111.6 62.9H108C107.8 62.9 107.5 62.9 107.4 63.1C107.3 63.2 107.3 63.4 107.3 63.6L107.2 79.3C107.2 79.8 106.9 80 106.3 80H103C102.8 80 102.6 80 102.4 79.8C102.2 79.7 102.1 79.5 102.2 79.3V63.6C102.2 63.4 102.2 63.3 102.1 63.1C102 63 101.8 62.9 101.5 62.9H98.3C98.1 62.9 97.9 62.8 97.7 62.7C97.6 62.5 97.5 62.3 97.5 62.1V59.4C97.5 59.2 97.5 59 97.7 58.8C97.8 58.6 98.1 58.6 98.3 58.6H111.6C112 58.6 112.3 58.9 112.3 59.4V62.1C112.2 62.3 112.1 62.5 112.1 62.7Z" fill="white"/>
<path d="M148.1 79.9H145.9C145.7 79.9 145.4 79.9 145.2 79.9C145 79.9 144.8 79.7 144.6 79.4L138.2 69.1C138.2 69.1 138.2 69 138.1 69.1V69.2V79.3C138.1 79.5 138 79.7 137.9 79.8C137.7 79.9 137.5 79.9 137.2 79.9H134.2C134 79.9 133.8 79.9 133.6 79.8C133.4 79.7 133.3 79.5 133.4 79.3V59.3C133.4 58.8 133.7 58.5 134.3 58.5H136.6C136.9 58.5 137.1 58.5 137.4 58.6C137.6 58.8 137.8 59 137.9 59.2L144.1 69.5C144.1 69.6 144.2 69.6 144.2 69.6L144.3 69.5V59.2C144.3 58.7 144.6 58.5 145.2 58.5H148.2C148.4 58.5 148.6 58.5 148.8 58.7C149 58.8 149.1 59.1 149 59.3V79.2C149 79.7 148.7 79.9 148.1 79.9Z" fill="white"/>
<path d="M184.5 75.5C185 75.5 185.2 75.8 185.2 76.3V79.1C185.2 79.7 185 79.9 184.5 79.9H172.3C171.9 80 171.5 79.7 171.5 79.3C171.5 79.2 171.5 79.2 171.5 79.1V59.3C171.4 58.9 171.7 58.5 172.1 58.5C172.2 58.5 172.2 58.5 172.3 58.5H184.2C184.7 58.5 184.9 58.7 184.9 59.3V62.1C184.9 62.6 184.7 62.9 184.2 62.9H177.2C177 62.9 176.7 62.9 176.5 63.1C176.4 63.2 176.3 63.4 176.4 63.6V66C176.4 66.2 176.4 66.5 176.6 66.7C176.8 66.9 177 66.9 177.3 66.9H183.1C183.3 66.9 183.5 67 183.7 67.1C183.8 67.3 183.9 67.5 183.9 67.7V70.4C183.9 70.6 183.9 70.8 183.7 71C183.6 71.2 183.3 71.3 183.1 71.2H177.2C176.9 71.2 176.7 71.3 176.6 71.4C176.5 71.6 176.4 71.8 176.5 72V74.8C176.5 75.1 176.6 75.3 176.7 75.4C176.9 75.5 177.2 75.6 177.5 75.5H184.5Z" fill="white"/>
<path d="M221.6 73.5C221.7 75.4 220.8 77.2 219.4 78.4C218.7 79 217.9 79.4 217 79.6C216.1 79.9 215.1 80 214.1 80C212.8 80 211.5 79.8 210.3 79.4C208.9 79 207.7 78.3 206.6 77.4C206.3 77.2 206.1 77 206 76.7C205.9 76.5 206.1 76.2 206.4 75.8L207.8 73.9C208.1 73.5 208.4 73.4 208.6 73.4C208.9 73.5 209.1 73.6 209.3 73.7C209.7 74 210.1 74.2 210.5 74.4C210.9 74.6 211.4 74.8 211.8 75C212.2 75.2 212.6 75.3 213.1 75.4C213.4 75.5 213.8 75.5 214.1 75.5C214.6 75.5 215.1 75.5 215.5 75.3C215.8 75.2 216.1 75.1 216.3 74.9C216.5 74.7 216.6 74.5 216.7 74.3C216.8 74.1 216.8 73.9 216.8 73.7C216.8 72.9 216.2 72.1 215.5 71.8C214.3 71.2 213.1 70.7 211.8 70.3C211.2 70.1 210.5 69.8 209.9 69.5C209.3 69.2 208.8 68.8 208.4 68.3C208 67.8 207.6 67.2 207.4 66.6C207.1 65.9 207 65.1 207 64.4C207 63.5 207.2 62.6 207.6 61.8C208 61 208.5 60.4 209.1 59.8C209.8 59.2 210.5 58.8 211.4 58.5C212.3 58.2 213.2 58 214.2 58C215.4 58 216.7 58.1 217.9 58.5C218.8 58.8 219.6 59.1 220.3 59.6C220.5 59.7 220.7 59.9 220.8 60.1C220.8 60.3 220.8 60.5 220.5 61L219.5 63C219.4 63.4 218.9 63.7 218.4 63.5C218.3 63.5 218.3 63.5 218.3 63.4C217.8 63.2 217.1 62.9 216.4 62.7C215.7 62.5 215 62.3 214.3 62.3C213.7 62.3 213.2 62.4 212.7 62.7C212.2 63 211.9 63.6 212 64.2C212 64.6 212.1 64.9 212.4 65.2C212.6 65.5 212.9 65.7 213.2 65.9C213.5 66.1 213.9 66.2 214.2 66.4L215.1 66.7L217.4 67.5C218.2 67.8 218.9 68.2 219.6 68.7C220.3 69.2 220.9 69.8 221.4 70.5C221.5 71.6 221.7 72.6 221.6 73.5Z" fill="white"/>
<path d="M257.9 73.5C257.9 74.5 257.7 75.5 257.3 76.3C256.9 77.1 256.4 77.8 255.7 78.3C255 78.9 254.2 79.3 253.3 79.5C252.4 79.8 251.4 79.9 250.4 79.9C249.1 79.9 247.8 79.7 246.5 79.3C245.1 78.9 243.9 78.2 242.8 77.3C242.5 77.1 242.3 76.9 242.2 76.6C242.2 76.3 242.3 76 242.6 75.7L244 74.1C244.3 73.7 244.6 73.6 244.8 73.6C245.1 73.7 245.3 73.8 245.5 73.9C245.9 74.2 246.3 74.4 246.7 74.6C247.1 74.8 247.6 75 248 75.2C248.4 75.4 248.8 75.5 249.3 75.6C249.6 75.7 250 75.7 250.3 75.7C250.8 75.7 251.2 75.7 251.7 75.5C252 75.4 252.3 75.3 252.5 75.1C252.7 74.9 252.8 74.7 252.9 74.5C252.9 74.3 253 74.1 253 73.9C253 73.1 252.4 72.3 251.7 72C250.5 71.4 249.3 70.9 248 70.5C247.4 70.3 246.7 70 246.1 69.7C245.5 69.4 245 69 244.5 68.5C244.1 68 243.7 67.4 243.5 66.8C243.2 66.1 243.1 65.3 243.1 64.6C243.1 63.7 243.3 62.8 243.7 62C244.1 61.2 244.6 60.6 245.3 60C246 59.4 246.7 59 247.6 58.7C248.5 58.4 249.4 58.2 250.4 58.2C251.6 58.2 252.9 58.3 254.1 58.7C255 58.9 255.8 59.3 256.6 59.8C256.8 59.9 257 60.1 257.1 60.3C257.2 60.5 257.1 60.7 256.8 61.2L255.8 63.2C255.7 63.6 255.2 63.9 254.7 63.7C254.6 63.7 254.6 63.7 254.6 63.6C254 63.3 253.3 63.1 252.7 62.9C252 62.7 251.3 62.5 250.6 62.5C250 62.5 249.5 62.6 249 62.9C248.5 63.2 248.2 63.8 248.3 64.4C248.3 64.8 248.4 65.1 248.7 65.4C248.9 65.7 249.2 65.9 249.5 66.1C249.8 66.3 250.2 66.4 250.5 66.6L251.4 66.9L253.7 67.7C254.5 68 255.2 68.4 255.9 68.9C256.6 69.4 257.1 70 257.6 70.7C257.7 71.6 258 72.6 257.9 73.5Z" fill="white"/>
</svg>
